<?xml version="1.0" encoding="utf-8"?>
<!-- Generator: Adobe Illustrator 25.4.1, SVG Export Plug-In . SVG Version: 6.00 Build 0)  -->
<svg version="1.1" id="Capa_1" xmlns="http://www.w3.org/2000/svg" xmlns:xlink="http://www.w3.org/1999/xlink" x="0px" y="0px"
	 viewBox="0 0 48 48" style="enable-background:new 0 0 48 48;" xml:space="preserve">
<style type="text/css">
	.st0{fill:#F2CC8F;}
	.st1{fill:#FFFFFF;}
	.st2{fill:#111111;}
	.st3{fill:#C77949;}
</style>
<g>
	<g>
		<g>
			<circle class="st0" cx="24.28" cy="22.53" r="15.39"/>
		</g>
	</g>
	<g>
		<g>
			<path class="st1" d="M24.28,5.99c-9.25,0-16.75,7.5-16.75,16.75s7.5,16.75,16.75,16.75s16.75-7.5,16.75-16.75
				S33.53,5.99,24.28,5.99z M24.28,38.13c-8.5,0-15.39-6.89-15.39-15.39S15.78,7.34,24.28,7.34s15.39,6.89,15.39,15.39
				S32.78,38.13,24.28,38.13z"/>
		</g>
		<g>
			<path class="st2" d="M24.28,39.58c-9.29,0-16.84-7.56-16.84-16.84S14.99,5.9,24.28,5.9s16.84,7.56,16.84,16.84
				S33.57,39.58,24.28,39.58z M24.28,6.08c-9.19,0-16.66,7.47-16.66,16.66S15.09,39.4,24.28,39.4s16.66-7.47,16.66-16.66
				S33.47,6.08,24.28,6.08z M24.28,38.22c-8.54,0-15.48-6.95-15.48-15.48S15.74,7.25,24.28,7.25s15.48,6.95,15.48,15.48
				S32.82,38.22,24.28,38.22z M24.28,7.43c-8.44,0-15.3,6.87-15.3,15.3s6.87,15.3,15.3,15.3s15.3-6.87,15.3-15.3
				S32.72,7.43,24.28,7.43z"/>
		</g>
	</g>
	<g>
		<g>
			<g>
				<path class="st1" d="M19.47,41.94c0,0,1.59-3.28-2.33-4.55c0,0-0.68-0.21-1.03,0l-0.45,0.42c0,0-0.3,0.2-0.8-0.56
					c-0.03-0.05-0.02-0.11,0.02-0.14l0.36-0.36c0,0,0.53-0.74-0.32-1.27c-0.81-0.51-1.73,0.45-1.51,1.46
					c0.01,0.05-0.04,0.08-0.08,0.05c-0.14-0.1-0.38-0.31-0.52-0.67c-0.21-0.53-0.11-0.85,0.95-1.59c0.84-0.59,0.35-0.91,0.11-1.02
					c-0.03-0.01-0.03-0.06,0.01-0.07c0.29-0.08,1.03-0.33,0.95-0.93c0,0-0.1-0.6-1.17-0.34c-0.04,0.01-0.08-0.03-0.08-0.07
					c0.05-0.31,0.15-1.28-0.65-1.28c-0.95,0-3.28,0.95-1.06,5.45c0,0,0.1,0.26,0.42,0.58c0.32,0.32,0,0.53,0,0.53
					s-0.53,0.21-1.16-1.27c-0.63-1.48-0.42-2.22-0.42-3.17c0-0.95,0.21-2.01-0.42-2.96c-0.63-0.95-1.69-2.33-3.07-2.33
					s-1.06,0.74-1.06,0.74s-0.21,0.53,1.38,0.53c0,0,1.68,0.21,2.22,2.52c0,0.01,0,0.02,0,0.03c-0.01,0.18-0.09,1.82,0.11,2.42
					c0.21,0.63,0.11,1.38,0,1.38s-0.85-1.59-0.85-2.43c0-0.85-0.74-3.49-1.9-3.49c-1.11,0-0.39,1.06,0.05,1.25
					c0.03,0.01,0.05,0.05,0.05,0.09c-0.05,0.26-0.15,1.23,0.75,2.05c0,0,0.32,0.42,0.11,0.53c-0.21,0.11-0.63-0.42-0.85-1.06
					c-0.21-0.63-1.06-0.32-1.09,0.11c0,0-0.18,3.11,2.49,2.76c0.04-0.01,0.09,0.02,0.11,0.06c0.18,0.42,1.18,2.61,2.95,2.78
					c0.06,0.01,0.11,0.03,0.16,0.06c0.33,0.28,1.91,1.49,4.06,1.21c0,0,1.9-0.21,3.39,2.43C19.26,41.84,19.36,42.15,19.47,41.94z"/>
			</g>
			<g>
				<path class="st2" d="M19.39,42.1c0,0-0.01,0-0.01,0c-0.12-0.01-0.18-0.16-0.21-0.23c-1.43-2.55-3.27-2.38-3.29-2.38
					c-2.2,0.29-3.83-0.98-4.13-1.23c-0.03-0.02-0.07-0.04-0.11-0.04c-1.81-0.17-2.83-2.39-3.02-2.83c0,0-0.01-0.01-0.01,0
					c-0.75,0.1-1.35-0.06-1.8-0.47c-0.88-0.82-0.8-2.32-0.8-2.39c0.02-0.26,0.3-0.5,0.62-0.54c0.31-0.04,0.55,0.12,0.65,0.41
					c0.17,0.52,0.48,0.92,0.66,1C7.96,33.4,7.98,33.41,8,33.4c0.01-0.01,0.02-0.01,0.02-0.03c0.02-0.08-0.08-0.26-0.15-0.36
					c-0.92-0.83-0.83-1.82-0.78-2.12c-0.32-0.14-0.75-0.68-0.67-1.05c0.03-0.17,0.18-0.37,0.67-0.37c1.21,0,1.99,2.66,1.99,3.58
					c0,0.71,0.54,1.97,0.75,2.29c0.05-0.2,0.09-0.72-0.07-1.2c-0.2-0.61-0.12-2.26-0.11-2.45c-0.5-2.19-2.02-2.44-2.14-2.46
					c-0.77,0-1.24-0.12-1.41-0.37c-0.07-0.1-0.07-0.2-0.06-0.25c-0.02-0.08-0.07-0.28,0.06-0.47c0.16-0.24,0.53-0.37,1.09-0.37
					c1.4,0,2.47,1.35,3.14,2.37c0.53,0.79,0.49,1.63,0.45,2.44c-0.01,0.2-0.02,0.38-0.02,0.57c0,0.19-0.01,0.38-0.02,0.56
					c-0.03,0.73-0.07,1.41,0.43,2.58c0.54,1.25,0.97,1.23,1.04,1.22c0.02-0.02,0.08-0.08,0.09-0.15c0.01-0.07-0.03-0.15-0.11-0.23
					c-0.33-0.33-0.44-0.6-0.44-0.61c-1.26-2.56-1.02-3.92-0.59-4.61c0.44-0.71,1.2-0.96,1.72-0.96c0.24,0,0.43,0.08,0.56,0.24
					c0.26,0.31,0.23,0.85,0.19,1.11c0.43-0.1,0.77-0.07,1,0.08c0.21,0.14,0.25,0.34,0.25,0.34c0.08,0.59-0.51,0.87-0.88,0.99
					c0.18,0.11,0.28,0.24,0.29,0.39c0.02,0.22-0.15,0.46-0.51,0.71c-1.07,0.75-1.1,1.03-0.92,1.48c0.11,0.28,0.29,0.46,0.41,0.57
					c-0.08-0.55,0.15-1.13,0.58-1.43c0.34-0.24,0.74-0.25,1.09-0.03c0.29,0.18,0.46,0.4,0.51,0.66c0.08,0.39-0.15,0.73-0.16,0.74
					l-0.01,0.01l-0.36,0.36c-0.01,0.01-0.01,0.02,0,0.03c0.4,0.6,0.63,0.55,0.67,0.53l0.46-0.43c0.38-0.23,1.07-0.02,1.1-0.01
					c1.26,0.41,2.1,1.07,2.48,1.96c0.56,1.32-0.07,2.66-0.1,2.71l0,0C19.5,42.08,19.44,42.1,19.39,42.1z M15.99,39.31
					c0.46,0,2.06,0.18,3.35,2.48l0.01,0.02c0.01,0.03,0.03,0.07,0.05,0.1c0,0,0,0,0,0c0.01-0.03,0.62-1.33,0.09-2.56
					c-0.36-0.84-1.16-1.47-2.37-1.86c-0.01,0-0.63-0.19-0.94-0.01l-0.46,0.43c-0.01,0.01-0.1,0.06-0.23,0.03
					c-0.22-0.04-0.45-0.25-0.69-0.61c-0.05-0.08-0.04-0.19,0.03-0.26l0.35-0.35c0.03-0.04,0.19-0.3,0.13-0.6
					c-0.04-0.21-0.18-0.39-0.43-0.54c-0.28-0.18-0.61-0.17-0.89,0.03c-0.4,0.28-0.6,0.83-0.49,1.34c0.01,0.06-0.01,0.12-0.06,0.15
					c-0.05,0.03-0.11,0.03-0.16,0c-0.14-0.1-0.4-0.33-0.55-0.71c-0.25-0.62-0.04-0.98,0.98-1.69c0.3-0.21,0.45-0.4,0.43-0.55
					c-0.01-0.16-0.2-0.26-0.31-0.31c-0.05-0.02-0.08-0.07-0.07-0.13c0-0.05,0.04-0.1,0.09-0.11c0.29-0.08,0.95-0.31,0.88-0.83
					c0,0-0.03-0.13-0.17-0.23c-0.19-0.12-0.5-0.14-0.89-0.04c-0.05,0.01-0.1,0-0.14-0.04c-0.04-0.03-0.05-0.08-0.05-0.13
					c0.03-0.16,0.1-0.72-0.14-1c-0.1-0.12-0.24-0.17-0.42-0.17c-0.47,0-1.17,0.23-1.57,0.88c-0.41,0.65-0.63,1.95,0.6,4.44
					c0,0.01,0.11,0.26,0.4,0.56c0.12,0.12,0.18,0.25,0.17,0.38c-0.02,0.18-0.17,0.29-0.18,0.29l-0.02,0.01
					c-0.06,0.02-0.63,0.2-1.28-1.32c-0.52-1.2-0.48-1.94-0.45-2.66c0.01-0.18,0.02-0.36,0.02-0.55c0-0.19,0.01-0.39,0.02-0.58
					c0.03-0.78,0.07-1.59-0.42-2.33c-0.65-0.98-1.68-2.29-2.99-2.29c-0.62,0-0.86,0.15-0.94,0.28c-0.1,0.15-0.03,0.32-0.03,0.33
					l0.01,0.03l-0.01,0.03c0,0-0.02,0.06,0.03,0.12c0.08,0.11,0.34,0.28,1.26,0.28l0.01,0c0.02,0,1.75,0.25,2.29,2.59
					c0,0.02,0.01,0.04,0.01,0.06c-0.01,0.18-0.09,1.8,0.1,2.38c0.19,0.57,0.14,1.26,0.02,1.43c-0.04,0.05-0.08,0.06-0.1,0.06
					c-0.24,0-0.94-1.76-0.94-2.52c0-0.85-0.73-3.4-1.81-3.4c-0.2,0-0.46,0.04-0.49,0.22c-0.06,0.28,0.32,0.74,0.57,0.85
					c0.07,0.03,0.11,0.11,0.1,0.19C7.22,31.18,7.13,32.1,8,32.88l0.01,0.01c0.04,0.05,0.23,0.33,0.19,0.52
					c-0.02,0.06-0.06,0.11-0.12,0.15c-0.04,0.02-0.12,0.04-0.21,0c-0.26-0.11-0.58-0.58-0.76-1.11c-0.1-0.29-0.33-0.31-0.46-0.29
					c-0.24,0.03-0.45,0.2-0.46,0.38c0,0.01-0.07,1.49,0.74,2.24c0.4,0.37,0.96,0.51,1.65,0.42c0.08-0.01,0.17,0.04,0.2,0.11
					c0.18,0.43,1.17,2.57,2.87,2.73c0.08,0.01,0.15,0.04,0.21,0.09c0.29,0.25,1.86,1.47,3.99,1.19
					C15.87,39.31,15.91,39.31,15.99,39.31z"/>
			</g>
		</g>
		<g>
			<g>
				<path class="st1" d="M28.53,41.94c0,0-1.59-3.28,2.33-4.55c0,0,0.68-0.21,1.03,0l0.45,0.42c0,0,0.3,0.2,0.8-0.56
					c0.03-0.05,0.02-0.11-0.02-0.14l-0.36-0.36c0,0-0.53-0.74,0.32-1.27c0.81-0.51,1.73,0.45,1.51,1.46
					C34.58,37,34.64,37.03,34.67,37c0.14-0.1,0.38-0.31,0.52-0.67c0.21-0.53,0.11-0.85-0.95-1.59c-0.84-0.59-0.35-0.91-0.11-1.02
					c0.03-0.01,0.03-0.06-0.01-0.07c-0.29-0.08-1.03-0.33-0.95-0.93c0,0,0.1-0.6,1.17-0.34c0.04,0.01,0.08-0.03,0.08-0.07
					c-0.05-0.31-0.15-1.28,0.65-1.28c0.95,0,3.28,0.95,1.06,5.45c0,0-0.1,0.26-0.42,0.58c-0.32,0.32,0,0.53,0,0.53
					s0.53,0.21,1.16-1.27c0.63-1.48,0.42-2.22,0.42-3.17c0-0.95-0.21-2.01,0.42-2.96c0.63-0.95,1.69-2.33,3.07-2.33
					s1.06,0.74,1.06,0.74s0.21,0.53-1.38,0.53c0,0-1.68,0.21-2.22,2.52c0,0.01,0,0.02,0,0.03c0.01,0.18,0.09,1.82-0.11,2.42
					c-0.21,0.63-0.11,1.38,0,1.38s0.85-1.59,0.85-2.43c0-0.85,0.74-3.49,1.9-3.49c1.11,0,0.39,1.06-0.05,1.25
					c-0.03,0.01-0.05,0.05-0.05,0.09c0.05,0.26,0.15,1.23-0.75,2.05c0,0-0.32,0.42-0.11,0.53c0.21,0.11,0.63-0.42,0.85-1.06
					s1.06-0.32,1.09,0.11c0,0,0.18,3.11-2.49,2.76c-0.04-0.01-0.09,0.02-0.11,0.06c-0.18,0.42-1.18,2.61-2.95,2.78
					c-0.06,0.01-0.11,0.03-0.16,0.06c-0.33,0.28-1.91,1.49-4.06,1.21c0,0-1.9-0.21-3.39,2.43C28.74,41.84,28.64,42.15,28.53,41.94z"
					/>
			</g>
			<g>
				<path class="st2" d="M28.61,42.1c-0.05,0-0.11-0.02-0.16-0.12l0,0c-0.03-0.06-0.66-1.39-0.1-2.71c0.38-0.89,1.21-1.55,2.48-1.96
					c0.03-0.01,0.72-0.22,1.1,0.01l0.01,0.01l0.45,0.42c0.03,0.01,0.27,0.08,0.67-0.53c0.01-0.01,0-0.02,0-0.03l-0.37-0.37
					c-0.01-0.01-0.24-0.35-0.16-0.74c0.05-0.26,0.22-0.48,0.51-0.66c0.35-0.22,0.74-0.21,1.09,0.03c0.43,0.3,0.66,0.87,0.58,1.43
					c0.13-0.11,0.3-0.29,0.41-0.57c0.18-0.45,0.15-0.73-0.92-1.48c-0.36-0.25-0.53-0.49-0.51-0.71c0.01-0.15,0.12-0.29,0.29-0.39
					c-0.37-0.12-0.96-0.4-0.88-0.99c0-0.01,0.04-0.21,0.25-0.35c0.23-0.15,0.56-0.18,1-0.08c-0.04-0.26-0.08-0.8,0.19-1.11
					c0.13-0.16,0.32-0.24,0.56-0.24c0.52,0,1.28,0.25,1.72,0.96c0.43,0.69,0.68,2.05-0.59,4.62c0,0-0.11,0.28-0.44,0.61
					c-0.08,0.08-0.12,0.16-0.11,0.23c0.01,0.08,0.07,0.13,0.09,0.15c0.06,0.01,0.5,0.04,1.04-1.22c0.5-1.16,0.47-1.85,0.43-2.58
					c-0.01-0.18-0.02-0.37-0.02-0.56c0-0.19-0.01-0.37-0.02-0.57c-0.03-0.81-0.07-1.65,0.45-2.44c0.68-1.02,1.74-2.37,3.14-2.37
					c0.57,0,0.93,0.12,1.09,0.37c0.13,0.19,0.08,0.39,0.06,0.47c0.01,0.05,0.01,0.14-0.06,0.25c-0.17,0.24-0.64,0.37-1.41,0.37
					c-0.12,0.02-1.63,0.28-2.14,2.45c0.01,0.19,0.09,1.84-0.11,2.46c-0.16,0.48-0.13,1-0.07,1.2c0.2-0.32,0.75-1.57,0.75-2.29
					c0-0.92,0.78-3.58,1.99-3.58c0.49,0,0.64,0.2,0.67,0.37c0.08,0.37-0.35,0.91-0.67,1.05c0.05,0.3,0.14,1.28-0.78,2.12
					c-0.07,0.1-0.17,0.28-0.15,0.36c0,0.01,0.01,0.02,0.02,0.03c0.02,0.01,0.04,0,0.06-0.01c0.18-0.07,0.48-0.48,0.66-1
					c0.1-0.3,0.34-0.45,0.65-0.41c0.32,0.04,0.6,0.28,0.62,0.54c0,0.07,0.08,1.57-0.8,2.39c-0.44,0.41-1.05,0.57-1.8,0.47
					c0,0-0.01,0-0.01,0c-0.19,0.44-1.21,2.66-3.02,2.83c-0.04,0-0.08,0.02-0.11,0.04c-0.3,0.26-1.92,1.52-4.13,1.23
					c-0.02,0-1.86-0.17-3.29,2.38c-0.03,0.07-0.09,0.22-0.21,0.23C28.62,42.1,28.61,42.1,28.61,42.1z M28.61,41.9
					C28.61,41.9,28.61,41.9,28.61,41.9c0.02-0.02,0.03-0.06,0.05-0.09l0.01-0.02c1.49-2.67,3.39-2.49,3.47-2.48
					c2.13,0.28,3.7-0.94,3.99-1.19c0.06-0.05,0.13-0.08,0.21-0.09c1.71-0.16,2.69-2.3,2.87-2.73c0.03-0.08,0.11-0.12,0.2-0.11
					c0.69,0.09,1.25-0.05,1.65-0.42c0.82-0.76,0.74-2.23,0.74-2.25c-0.01-0.17-0.22-0.35-0.46-0.38c-0.13-0.02-0.36,0-0.46,0.29
					c-0.18,0.53-0.5,1-0.76,1.11c-0.1,0.04-0.17,0.02-0.21,0c-0.06-0.03-0.1-0.08-0.12-0.15c-0.05-0.19,0.15-0.47,0.19-0.52
					L40,32.88c0.87-0.78,0.78-1.7,0.73-1.97c-0.01-0.08,0.03-0.15,0.1-0.19c0.25-0.11,0.63-0.57,0.57-0.85
					c-0.04-0.19-0.29-0.22-0.49-0.22c-1.08,0-1.81,2.55-1.81,3.4c0,0.77-0.7,2.52-0.94,2.52c-0.03,0-0.07-0.01-0.1-0.06
					c-0.12-0.17-0.17-0.86,0.02-1.43c0.19-0.58,0.11-2.2,0.1-2.38c0-0.02,0-0.04,0-0.06c0.54-2.35,2.28-2.59,2.29-2.59l0.01,0
					c0.92,0,1.19-0.18,1.26-0.28c0.05-0.07,0.03-0.12,0.03-0.12l-0.01-0.03l0.01-0.03c0-0.01,0.07-0.18-0.03-0.33
					c-0.09-0.13-0.32-0.28-0.94-0.28c-1.32,0-2.34,1.31-2.99,2.29c-0.49,0.74-0.46,1.55-0.42,2.33c0.01,0.19,0.02,0.39,0.02,0.58
					c0,0.19,0.01,0.37,0.02,0.55c0.03,0.72,0.07,1.46-0.45,2.66c-0.65,1.52-1.22,1.34-1.28,1.32l-0.02-0.01
					c-0.01,0-0.16-0.11-0.18-0.29c-0.01-0.13,0.04-0.25,0.17-0.38c0.3-0.3,0.4-0.55,0.4-0.55c1.23-2.5,1.01-3.8,0.6-4.45
					c-0.4-0.65-1.1-0.88-1.57-0.88c-0.19,0-0.32,0.06-0.42,0.17c-0.24,0.28-0.17,0.84-0.14,1c0.01,0.05-0.01,0.1-0.05,0.13
					c-0.04,0.04-0.09,0.05-0.14,0.04c-0.39-0.09-0.7-0.08-0.89,0.04c-0.15,0.1-0.17,0.22-0.17,0.23c-0.07,0.52,0.59,0.75,0.88,0.82
					c0.05,0.01,0.09,0.06,0.09,0.11c0,0.05-0.02,0.1-0.07,0.13c-0.11,0.05-0.29,0.15-0.31,0.31c-0.01,0.15,0.13,0.34,0.43,0.55
					c1.02,0.71,1.23,1.08,0.98,1.69c-0.15,0.38-0.41,0.61-0.55,0.71c-0.05,0.03-0.11,0.04-0.16,0c-0.05-0.03-0.07-0.09-0.06-0.15
					c0.11-0.51-0.09-1.06-0.49-1.34c-0.28-0.2-0.6-0.21-0.89-0.03c-0.24,0.15-0.38,0.33-0.43,0.54c-0.06,0.29,0.1,0.55,0.13,0.6
					l0.35,0.35c0.07,0.07,0.08,0.18,0.03,0.26c-0.24,0.36-0.47,0.57-0.69,0.61c-0.14,0.03-0.22-0.02-0.23-0.03l-0.01-0.01
					l-0.45-0.42c-0.26-0.15-0.77-0.04-0.95,0.01c-1.21,0.39-2.01,1.02-2.37,1.86C27.99,40.57,28.6,41.87,28.61,41.9z"/>
			</g>
		</g>
		<g>
			<g>
				<g>
					<path class="st1" d="M22.85,39.72c0,0-1.48-1.9-2.96-2.22c-1.48-0.32-1.38,0.63-1.27,0.85c0.11,0.21,0.58,0.36,1.24,0.23
						c0,0,0.98-0.02,2.67,1.46C22.54,40.04,23.06,40.46,22.85,39.72z"/>
				</g>
				<g>
					<path class="st2" d="M22.79,40.25c-0.13,0-0.27-0.1-0.32-0.14c-1.57-1.37-2.52-1.44-2.61-1.44c-0.71,0.13-1.21-0.04-1.33-0.28
						c-0.07-0.13-0.13-0.49,0.07-0.75c0.22-0.28,0.66-0.36,1.29-0.22c1.5,0.32,2.95,2.18,3.01,2.25l0.01,0.01l0,0.02
						c0.05,0.18,0.1,0.43-0.04,0.52C22.87,40.24,22.83,40.25,22.79,40.25z M19.87,38.49c0.09,0,1.07,0.03,2.73,1.48
						c0.08,0.06,0.18,0.11,0.21,0.1l0,0c0,0,0.04-0.05-0.03-0.31c-0.14-0.17-1.53-1.88-2.9-2.18c-0.56-0.12-0.94-0.07-1.11,0.16
						c-0.16,0.2-0.1,0.48-0.06,0.56c0.07,0.15,0.49,0.31,1.15,0.18L19.87,38.49C19.86,38.49,19.87,38.49,19.87,38.49z"/>
				</g>
			</g>
			<g>
				<g>
					<path class="st1" d="M22.9,39.7c0.04,0.03-0.37-1.14,0.27-1.99c0.63-0.85-0.42-1.38-0.95-0.95
						C21.69,37.18,21.26,38.41,22.9,39.7z"/>
				</g>
				<g>
					<path class="st2" d="M22.9,39.81l-0.05-0.04c-0.98-0.77-1.19-1.49-1.19-1.95c0-0.53,0.26-0.93,0.51-1.13
						c0.34-0.27,0.84-0.19,1.1,0.06c0.27,0.26,0.26,0.64-0.02,1.01c-0.33,0.44-0.42,1.06-0.26,1.84c0.02,0.1,0.03,0.14-0.03,0.18
						L22.9,39.81z M22.66,36.7c-0.14,0-0.27,0.04-0.39,0.13c-0.21,0.17-0.44,0.52-0.44,0.99c0,0.4,0.17,0.99,0.94,1.66
						c-0.13-0.76-0.02-1.37,0.32-1.82c0.22-0.3,0.24-0.58,0.04-0.78C23.02,36.77,22.84,36.7,22.66,36.7z"/>
				</g>
			</g>
			<g>
				<g>
					<path class="st1" d="M22.56,40.16c0,0-0.97-1.28-2.03-0.76s-0.85,1.69-0.21,1.69c0.63,0,0.53-0.53,0.74-0.74
						c0.21-0.21,0.63-0.74,1.48-0.11C22.54,40.25,22.79,40.38,22.56,40.16z"/>
				</g>
				<g>
					<path class="st2" d="M20.31,41.18c-0.29,0-0.52-0.21-0.59-0.52c-0.1-0.43,0.1-1.01,0.77-1.34c1.07-0.54,2.06,0.68,2.14,0.78
						c0.08,0.08,0.16,0.16,0.1,0.24c-0.06,0.08-0.18,0.02-0.23-0.01l-0.01-0.01c-0.73-0.55-1.1-0.17-1.32,0.06l-0.04,0.04
						c-0.05,0.05-0.08,0.14-0.12,0.24C20.92,40.88,20.81,41.18,20.31,41.18z M21.05,39.37c-0.16,0-0.32,0.03-0.49,0.12
						c-0.58,0.29-0.76,0.78-0.67,1.14c0.06,0.24,0.22,0.38,0.42,0.38c0.37,0,0.44-0.19,0.52-0.41c0.04-0.11,0.08-0.22,0.16-0.3
						l0.04-0.04c0.2-0.2,0.58-0.6,1.24-0.27C22.02,39.73,21.57,39.37,21.05,39.37z"/>
				</g>
			</g>
		</g>
		<g>
			<g>
				<g>
					<path class="st1" d="M25.11,39.72c0,0,1.48-1.9,2.96-2.22c1.48-0.32,1.38,0.63,1.27,0.85c-0.11,0.21-0.58,0.36-1.24,0.23
						c0,0-0.98-0.02-2.67,1.46C25.43,40.04,24.9,40.46,25.11,39.72z"/>
				</g>
				<g>
					<path class="st2" d="M25.17,40.25c-0.04,0-0.07-0.01-0.11-0.03c-0.14-0.09-0.09-0.34-0.04-0.52l0-0.02l0.01-0.01
						c0.06-0.08,1.52-1.93,3.01-2.25c0.64-0.14,1.07-0.06,1.29,0.22c0.21,0.27,0.14,0.62,0.07,0.75c-0.12,0.24-0.62,0.42-1.33,0.28
						c-0.08,0-1.03,0.06-2.6,1.44C25.44,40.14,25.3,40.25,25.17,40.25z M25.19,39.76c-0.07,0.25-0.03,0.31-0.03,0.31
						c0.03,0.01,0.13-0.04,0.21-0.1c1.7-1.48,2.69-1.48,2.73-1.48l0.02,0c0.66,0.13,1.07-0.04,1.15-0.18
						c0.04-0.08,0.1-0.36-0.06-0.56c-0.17-0.22-0.56-0.27-1.11-0.16C26.73,37.88,25.33,39.59,25.19,39.76z"/>
				</g>
			</g>
			<g>
				<g>
					<path class="st1" d="M25.06,39.7c-0.04,0.03,0.37-1.14-0.27-1.99c-0.63-0.85,0.42-1.38,0.95-0.95
						C26.27,37.18,26.7,38.41,25.06,39.7z"/>
				</g>
				<g>
					<path class="st2" d="M25.07,39.81l-0.06-0.03c-0.06-0.04-0.05-0.08-0.03-0.18c0.06-0.29,0.24-1.17-0.26-1.84
						c-0.28-0.37-0.29-0.75-0.02-1.01c0.26-0.25,0.76-0.33,1.1-0.06c0.25,0.2,0.51,0.6,0.51,1.13c0,0.47-0.21,1.18-1.19,1.95l0,0
						L25.07,39.81z M25.3,36.7c-0.18,0-0.36,0.07-0.47,0.18c-0.2,0.19-0.19,0.48,0.04,0.78c0.34,0.45,0.45,1.07,0.32,1.82
						c0.77-0.67,0.94-1.27,0.94-1.66c0-0.47-0.23-0.82-0.44-0.99C25.58,36.74,25.44,36.7,25.3,36.7z"/>
				</g>
			</g>
			<g>
				<g>
					<path class="st1" d="M25.41,40.16c0,0,0.97-1.28,2.03-0.76s0.85,1.69,0.21,1.69c-0.63,0-0.53-0.53-0.74-0.74
						c-0.21-0.21-0.63-0.74-1.48-0.11C25.43,40.25,25.18,40.38,25.41,40.16z"/>
				</g>
				<g>
					<path class="st2" d="M27.65,41.18c-0.5,0-0.61-0.31-0.69-0.53c-0.03-0.09-0.07-0.18-0.12-0.24l-0.04-0.04
						c-0.22-0.23-0.59-0.61-1.32-0.06l-0.01,0.01c-0.06,0.03-0.17,0.09-0.23,0.01c-0.06-0.08,0.02-0.17,0.1-0.24
						c0.08-0.1,1.06-1.31,2.14-0.78c0.67,0.33,0.87,0.91,0.77,1.34C28.17,40.98,27.94,41.18,27.65,41.18z M26.17,39.85
						c0.38,0,0.62,0.25,0.76,0.4l0.04,0.04c0.08,0.08,0.12,0.19,0.16,0.3c0.08,0.22,0.15,0.41,0.52,0.41c0.2,0,0.36-0.15,0.42-0.38
						c0.08-0.36-0.09-0.85-0.67-1.14c-0.7-0.35-1.38,0.17-1.71,0.5C25.87,39.89,26.03,39.85,26.17,39.85z"/>
				</g>
			</g>
		</g>
		<g>
			<g>
				<g>
					<path class="st1" d="M25.03,38.56c-0.42,0.02-1.4,0.23-0.8,1.98c0,0,1.41,1.54,2.28,0.33c0,0,0.63-1.19-0.77-0.92
						c0,0-0.53,0.16-0.53-0.5v-0.71C25.21,38.63,25.12,38.55,25.03,38.56z"/>
				</g>
				<g>
					<path class="st2" d="M25.69,41.42c-0.76,0-1.49-0.79-1.52-0.82l-0.01-0.01l-0.01-0.02c-0.26-0.75-0.26-1.31-0.01-1.67
						c0.24-0.35,0.66-0.42,0.89-0.43l0,0c0.07,0,0.14,0.02,0.19,0.07c0.05,0.05,0.08,0.12,0.08,0.19v0.71
						c0,0.18,0.04,0.31,0.13,0.37c0.12,0.09,0.29,0.04,0.29,0.04c0.47-0.09,0.78-0.03,0.93,0.17c0.24,0.32-0.05,0.86-0.06,0.88
						l-0.01,0.01c-0.22,0.31-0.5,0.48-0.83,0.5C25.73,41.42,25.71,41.42,25.69,41.42z M24.31,40.49c0.1,0.1,0.79,0.79,1.43,0.75
						c0.27-0.02,0.5-0.16,0.69-0.42c0.07-0.13,0.21-0.5,0.07-0.69c-0.1-0.14-0.36-0.18-0.75-0.1c0,0-0.25,0.07-0.44-0.07
						c-0.13-0.1-0.2-0.28-0.2-0.52v-0.71c0-0.02-0.01-0.05-0.03-0.06c-0.02-0.02-0.04-0.03-0.06-0.02c-0.2,0.01-0.55,0.06-0.75,0.35
						C24.07,39.31,24.08,39.81,24.31,40.49z"/>
				</g>
			</g>
			<g>
				<g>
					<path class="st1" d="M22.97,38.56c0.42,0.02,1.41,0.23,0.8,1.98c0,0-1.41,1.54-2.29,0.33c0,0-0.63-1.19,0.77-0.92
						c0,0,0.53,0.16,0.53-0.5v-0.71C22.79,38.63,22.87,38.55,22.97,38.56z"/>
				</g>
				<g>
					<path class="st2" d="M22.31,41.42c-0.02,0-0.04,0-0.06,0c-0.33-0.02-0.61-0.19-0.83-0.5l-0.01-0.01
						c-0.01-0.02-0.29-0.56-0.06-0.88c0.15-0.2,0.46-0.26,0.93-0.17c0.01,0,0.18,0.05,0.3-0.04c0.09-0.07,0.13-0.19,0.13-0.37v-0.71
						c0-0.07,0.03-0.14,0.08-0.19c0.05-0.05,0.12-0.08,0.19-0.07l0,0c0.23,0.01,0.65,0.08,0.9,0.43c0.25,0.36,0.24,0.92-0.02,1.67
						l-0.01,0.02l-0.01,0.01C23.8,40.63,23.07,41.42,22.31,41.42z M21.56,40.82c0.19,0.26,0.42,0.4,0.69,0.42
						c0.65,0.04,1.34-0.64,1.44-0.75c0.23-0.68,0.24-1.18,0.03-1.49c-0.2-0.29-0.56-0.35-0.75-0.35l0,0c-0.02,0-0.04,0.01-0.06,0.02
						c-0.02,0.02-0.03,0.04-0.03,0.06v0.71c0,0.24-0.07,0.42-0.2,0.52c-0.19,0.14-0.44,0.07-0.45,0.07
						c-0.38-0.07-0.64-0.04-0.74,0.1C21.35,40.32,21.49,40.69,21.56,40.82z"/>
				</g>
			</g>
		</g>
		<g>
			<g>
				<circle class="st1" cx="24.1" cy="40.78" r="0.85"/>
			</g>
			<g>
				<path class="st2" d="M24.1,41.71c-0.52,0-0.94-0.42-0.94-0.94c0-0.52,0.42-0.94,0.94-0.94c0.52,0,0.94,0.42,0.94,0.94
					C25.04,41.29,24.62,41.71,24.1,41.71z M24.1,40.02c-0.42,0-0.76,0.34-0.76,0.76s0.34,0.76,0.76,0.76c0.42,0,0.76-0.34,0.76-0.76
					S24.52,40.02,24.1,40.02z"/>
			</g>
		</g>
	</g>
	<g>
		<g>
			<path class="st3" d="M23.99,17.6c-0.6,0.46-3.1,2.38-3.68,2.71c-0.07,0.04-0.11,0.11-0.11,0.19v5.78c0,0.07,0.04,0.14,0.1,0.18
				c0.51,0.33,2.91,1.87,3.69,2.46c0.08,0.06,0.18,0.06,0.26,0c0.77-0.59,3.17-2.13,3.69-2.46c0.06-0.04,0.1-0.11,0.1-0.18v-5.78
				c0-0.08-0.04-0.15-0.11-0.19c-0.58-0.33-3.08-2.25-3.68-2.71C24.18,17.54,24.07,17.54,23.99,17.6z"/>
		</g>
	</g>
	<g>
		<g>
			<path class="st3" d="M24.28,14.46v2.53c0,0.03,0.02,0.04,0.05,0.04l2.25-0.26c0.03,0,0.05-0.05,0.02-0.07l-2.25-2.27
				C24.33,14.4,24.28,14.42,24.28,14.46z"/>
		</g>
	</g>
	<g>
		<g>
			<path class="st3" d="M23.92,14.46v2.53c0,0.03-0.02,0.04-0.05,0.04l-2.25-0.26c-0.03,0-0.05-0.05-0.02-0.07l2.25-2.27
				C23.87,14.4,23.92,14.42,23.92,14.46z"/>
		</g>
	</g>
	<g>
		<g>
			<path class="st3" d="M24.92,17.5l1.91-0.2c0.02,0,0.03,0.02,0.02,0.03l-0.7,1.1c-0.01,0.01-0.02,0.01-0.03,0.01l-1.2-0.9
				C24.89,17.52,24.9,17.5,24.92,17.5z"/>
		</g>
	</g>
	<g>
		<g>
			<path class="st3" d="M21.02,17.3l2.25,0.19c0.04,0,0.05,0.05,0.02,0.07l-2.78,1.99c-0.03,0.02-0.07-0.01-0.06-0.04l0.53-2.18
				C20.99,17.31,21,17.3,21.02,17.3z"/>
		</g>
	</g>
	<g>
		<g>
			<path class="st3" d="M19.64,19.91l-1.39-0.8c-0.02-0.01-0.02-0.04,0-0.06l1.99-1.29c0.03-0.02,0.06,0.01,0.05,0.04l-0.6,2.09
				C19.68,19.91,19.66,19.92,19.64,19.91z"/>
		</g>
	</g>
	<g>
		<g>
			<path class="st3" d="M17.88,22.51v-3.02c0-0.02,0.02-0.03,0.03-0.02l1.53,0.88c0.01,0.01,0.01,0.02,0.01,0.03l-1.53,2.15
				C17.91,22.54,17.88,22.53,17.88,22.51z"/>
		</g>
	</g>
	<g>
		<g>
			<polygon class="st3" points="19.68,21 19.68,25.66 17.99,23.21 			"/>
		</g>
	</g>
	<g>
		<g>
			<path class="st3" d="M17.88,24.27l-0.1,2.8c0,0.03,0.03,0.05,0.05,0.04l1.7-0.8c0.02-0.01,0.03-0.04,0.01-0.06l-1.6-2
				C17.92,24.22,17.88,24.23,17.88,24.27z"/>
		</g>
	</g>
	<g>
		<g>
			<path class="st3" d="M18.26,27.51l1.36-0.78c0.03-0.02,0.06,0,0.07,0.03l0.58,2.14c0.01,0.04-0.04,0.08-0.08,0.05l-1.94-1.36
				C18.23,27.58,18.23,27.53,18.26,27.51z"/>
		</g>
	</g>
	<g>
		<g>
			<path class="st3" d="M20.44,27.12l0.5,2.3c0,0.02,0.03,0.04,0.05,0.03l2.36-0.46c0.04-0.01,0.05-0.05,0.01-0.07l-2.86-1.83
				C20.47,27.06,20.43,27.08,20.44,27.12z"/>
		</g>
	</g>
	<g>
		<g>
			<path class="st3" d="M27.72,27.28l-0.43,2.04c0,0.02-0.02,0.03-0.04,0.03l-2.02-0.41c-0.03-0.01-0.04-0.05-0.01-0.07l2.45-1.63
				C27.69,27.22,27.73,27.25,27.72,27.28z"/>
		</g>
	</g>
	<g>
		<g>
			<path class="st3" d="M23.82,31.92l-2.35-1.96c-0.04-0.03-0.02-0.09,0.03-0.1l2.25-0.4c0.03-0.01,0.06,0.02,0.06,0.05l0.1,2.36
				C23.91,31.92,23.85,31.95,23.82,31.92z"/>
		</g>
	</g>
	<g>
		<g>
			<path class="st3" d="M24.43,31.95l2.29-2.04c0.03-0.03,0.02-0.09-0.03-0.09l-2.26-0.32c-0.03,0-0.06,0.02-0.06,0.05l-0.03,2.36
				C24.34,31.96,24.39,31.99,24.43,31.95z"/>
		</g>
	</g>
	<g>
		<g>
			<path class="st3" d="M28.45,26.63l-0.49,2.29c0,0.02,0.02,0.03,0.03,0.02l1.82-1.37c0.01-0.01,0.01-0.02,0-0.03l-1.33-0.92
				C28.47,26.61,28.46,26.61,28.45,26.63z"/>
		</g>
	</g>
	<g>
		<g>
			<path class="st3" d="M30.26,24.33v2.71c0,0.04-0.05,0.07-0.08,0.05l-1.45-0.87c-0.03-0.02-0.04-0.06-0.01-0.08l1.45-1.84
				C30.19,24.25,30.26,24.27,30.26,24.33z"/>
		</g>
	</g>
	<g>
		<g>
			<path class="st3" d="M28.69,21.22l-0.23,4.39c0,0.04,0.05,0.05,0.07,0.02l1.5-2.4c0.01-0.01,0.01-0.03,0-0.04l-1.28-1.99
				C28.74,21.18,28.69,21.19,28.69,21.22z"/>
		</g>
	</g>
	<g>
		<g>
			<path class="st3" d="M30.26,22.41v-2.82c0-0.04-0.04-0.06-0.08-0.04l-1.43,0.87c-0.03,0.02-0.03,0.05-0.01,0.07l1.43,1.95
				C30.2,22.48,30.26,22.46,30.26,22.41z"/>
		</g>
	</g>
	<g>
		<g>
			<path class="st3" d="M28.06,17.76l0.49,2.12c0.01,0.03,0.04,0.04,0.06,0.03l1.37-0.84c0.02-0.02,0.03-0.05,0-0.07l-1.87-1.28
				C28.09,17.7,28.05,17.72,28.06,17.76z"/>
		</g>
	</g>
	<g>
		<g>
			<path class="st3" d="M26.6,18.7l1.12,0.93c0.04,0.03,0.09,0,0.09-0.05l-0.37-1.86c-0.01-0.04-0.06-0.06-0.09-0.02l-0.74,0.93
				C26.57,18.65,26.57,18.68,26.6,18.7z"/>
		</g>
	</g>
</g>
</svg>
